<svg width="1066" height="1071" viewBox="0 0 1066 1071" fill="none" xmlns="http://www.w3.org/2000/svg">
<g id="Frame 2">
<rect width="1066" height="1071" fill="none"/>
<g id="Group 2">
<g id="Vector 7">
<path fill-rule="evenodd" clip-rule="evenodd" d="M178.272 463.65C126.772 542.15 245.039 933.362 432.272 984.15C610.272 951.65 771.272 627.15 777.272 530.395C745.218 532.238 709.695 536.393 674.566 540.501C615.603 547.398 557.75 554.164 519.272 549.65C478.341 544.848 423.614 521.073 369.666 497.636C285.572 461.103 203.371 425.393 178.272 463.65Z" fill="#E3E3E3">
                                    <animate attributeName="d" values="M178.272 463.65C126.772 542.15 245.039 933.362 432.272 984.15C610.272 951.65 771.272 627.15 777.272 530.395C745.218 532.238 709.695 536.393 674.566 540.501C615.603 547.398 557.75 554.164 519.272 549.65C478.341 544.848 423.614 521.073 369.666 497.636C285.572 461.103 203.371 425.393 178.272 463.65Z;M151.684 605.738C124.895 695.721 350.52 1036.5 544.451 1031.38C705.622 949.135 766.66 592.069 744.623 497.667C714.448 508.636 681.615 522.817 649.145 536.84C594.646 560.377 541.173 583.471 503.018 590.196C462.433 597.35 403.183 590.291 344.778 583.333C253.734 572.487 164.74 561.885 151.684 605.738Z;M178.272 463.65C126.772 542.15 245.039 933.362 432.272 984.15C610.272 951.65 771.272 627.15 777.272 530.395C745.218 532.238 709.695 536.393 674.566 540.501C615.603 547.398 557.75 554.164 519.272 549.65C478.341 544.848 423.614 521.073 369.666 497.636C285.572 461.103 203.371 425.393 178.272 463.65Z" begin="0s" dur="4s" repeatCount="indefinite" fill="freeze" calcMode="linear" keyTimes="0;0.5;1"/></path>
<path d="M432.272 984.15C619.505 1034.94 919.272 630.65 895.772 560.65C886.05 531.69 837.856 526.913 777.272 530.395C771.272 627.15 610.272 951.65 432.272 984.15Z" fill="#ECECEC">
                                    <animate attributeName="d" values="M432.272 984.15C619.505 1034.94 919.272 630.65 895.772 560.65C886.05 531.69 837.856 526.913 777.272 530.395C771.272 627.15 610.272 951.65 432.272 984.15Z;M544.451 1031.38C738.383 1026.26 909.432 552.923 866.82 492.619C849.192 467.671 801.656 476.934 744.623 497.667C766.66 592.069 705.622 949.135 544.451 1031.38Z;M432.272 984.15C619.505 1034.94 919.272 630.65 895.772 560.65C886.05 531.69 837.856 526.913 777.272 530.395C771.272 627.15 610.272 951.65 432.272 984.15Z" begin="0s" dur="4s" repeatCount="indefinite" fill="freeze" calcMode="linear" keyTimes="0;0.5;1"/></path>
</g>
<g id="Vector 1">
<path fill-rule="evenodd" clip-rule="evenodd" d="M618.772 86.65C418.271 47.65 163.271 263.65 215.771 373.15C244.351 432.758 427.618 484.069 596.271 500.223C756.771 458.297 779.271 247.15 759.198 149.15C719.233 119.516 671.918 96.9877 618.772 86.65Z" fill="#E3E3E3">
                                    <animate attributeName="d" values="M618.772 86.65C418.271 47.65 163.271 263.65 215.771 373.15C244.351 432.758 427.618 484.069 596.271 500.223C756.771 458.297 779.271 247.15 759.198 149.15C719.233 119.516 671.918 96.9877 618.772 86.65Z;M447.491 84.1518C244.156 103.546 60.7892 382.934 142.157 473.077C186.452 522.148 376.747 519.442 543.069 487.158C685.117 401.483 646.883 192.611 599.87 104.312C553.147 87.213 501.389 79.0109 447.491 84.1518Z;M618.772 86.65C418.271 47.65 163.271 263.65 215.771 373.15C244.351 432.758 427.618 484.069 596.271 500.223C756.771 458.297 779.271 247.15 759.198 149.15C719.233 119.516 671.918 96.9877 618.772 86.65Z" begin="0s" dur="4s" repeatCount="indefinite" fill="freeze" calcMode="linear" keyTimes="0;0.5;1"/></path>
<path d="M889.771 451.15C924.313 368.103 870.005 231.313 759.198 149.15C779.271 247.15 756.771 458.297 596.271 500.223C737.433 513.744 868.357 502.636 889.771 451.15Z" fill="#ECECEC">
                                    <animate attributeName="d" values="M889.771 451.15C924.313 368.103 870.005 231.313 759.198 149.15C779.271 247.15 756.771 458.297 596.271 500.223C737.433 513.744 868.357 502.636 889.771 451.15Z;M810.645 356.953C820.246 267.523 729.413 151.721 599.87 104.312C646.883 192.611 685.117 401.483 543.069 487.158C682.278 460.138 804.692 412.397 810.645 356.953Z;M889.771 451.15C924.313 368.103 870.005 231.313 759.198 149.15C779.271 247.15 756.771 458.297 596.271 500.223C737.433 513.744 868.357 502.636 889.771 451.15Z" begin="0s" dur="4s" repeatCount="indefinite" fill="freeze" calcMode="linear" keyTimes="0;0.5;1"/></path>
</g>
<g id="Rectangle 1">
<path fill-rule="evenodd" clip-rule="evenodd" d="M564.943 254.083C460.907 240.547 382.783 235.92 339.836 234.343C318.359 233.555 300.333 249.42 297.56 270.732L288.649 339.223C285.771 361.341 300.248 381.917 322.135 386.211C367.267 395.064 448.039 409.801 543.074 422.167C574.414 426.244 604.321 429.676 631.977 432.551C710.566 409.827 717.848 334.484 721.545 278.942C680.343 271.107 627.6 262.236 564.943 254.083Z" fill="#595963">
                                    <animate attributeName="d" values="M564.943 254.083C460.907 240.547 382.783 235.92 339.836 234.343C318.359 233.555 300.333 249.42 297.56 270.732L288.649 339.223C285.771 361.341 300.248 381.917 322.135 386.211C367.267 395.064 448.039 409.801 543.074 422.167C574.414 426.244 604.321 429.676 631.977 432.551C710.566 409.827 717.848 334.484 721.545 278.942C680.343 271.107 627.6 262.236 564.943 254.083Z;M443.298 259.975C339.688 276.464 263.454 294.157 221.82 304.811C200.999 310.14 188.206 330.461 191.583 351.686L202.439 419.895C205.945 441.923 225.657 457.555 247.864 455.472C293.655 451.178 375.294 442.431 469.938 427.368C501.15 422.401 530.803 417.22 558.141 412.143C627.074 368.088 612.715 293.768 600.526 239.453C558.793 243.611 505.697 250.044 443.298 259.975Z;M564.943 254.083C460.907 240.547 382.783 235.92 339.836 234.343C318.359 233.555 300.333 249.42 297.56 270.732L288.649 339.223C285.771 361.341 300.248 381.917 322.135 386.211C367.267 395.064 448.039 409.801 543.074 422.167C574.414 426.244 604.321 429.676 631.977 432.551C710.566 409.827 717.848 334.484 721.545 278.942C680.343 271.107 627.6 262.236 564.943 254.083Z" begin="0s" dur="4s" repeatCount="indefinite" fill="freeze" calcMode="linear" keyTimes="0;0.5;1"/></path>
<path d="M765.842 443.943C788.099 445.394 807.374 429.208 810.252 407.09L819.164 338.599C821.937 317.287 808.524 297.326 787.56 292.593C770.892 288.83 748.731 284.111 721.545 278.942C717.848 334.484 710.566 409.827 631.977 432.551C688.175 438.393 735.082 441.939 765.842 443.943Z" fill="#676873">
                                    <animate attributeName="d" values="M765.842 443.943C788.099 445.394 807.374 429.208 810.252 407.09L819.164 338.599C821.937 317.287 808.524 297.326 787.56 292.593C770.892 288.83 748.731 284.111 721.545 278.942C717.848 334.484 710.566 409.827 631.977 432.551C688.175 438.393 735.082 441.939 765.842 443.943Z;M689.75 385.148C711.507 380.234 725.407 359.251 721.902 337.224L711.046 269.014C707.668 247.789 689.151 232.446 667.705 233.845C650.653 234.958 628.063 236.71 600.526 239.453C612.715 293.768 627.074 368.088 558.141 412.143C613.693 401.826 659.682 391.939 689.75 385.148Z;M765.842 443.943C788.099 445.394 807.374 429.208 810.252 407.09L819.164 338.599C821.937 317.287 808.524 297.326 787.56 292.593C770.892 288.83 748.731 284.111 721.545 278.942C717.848 334.484 710.566 409.827 631.977 432.551C688.175 438.393 735.082 441.939 765.842 443.943Z" begin="0s" dur="4s" repeatCount="indefinite" fill="freeze" calcMode="linear" keyTimes="0;0.5;1"/></path>
</g>
<g id="Vector 2">
<path fill-rule="evenodd" clip-rule="evenodd" d="M395.165 335.612C395.261 328.255 395.353 321.185 397.545 306.469C398.142 302.462 406.048 318.081 413.945 333.684C421.998 349.592 430.041 365.483 430.322 360.54C430.947 349.503 410.065 294.468 399.074 276.15C392.516 279.35 387.432 303.15 385.71 314.65C378.564 297.058 361.673 258.828 351.277 246.65C360.095 274.772 393.313 378.726 394.927 344.816C395.09 341.391 395.128 338.48 395.165 335.612Z" fill="#FCFF6A">
                                    <animate attributeName="d" values="M395.165 335.612C395.261 328.255 395.353 321.185 397.545 306.469C398.142 302.462 406.048 318.081 413.945 333.684C421.998 349.592 430.041 365.483 430.322 360.54C430.947 349.503 410.065 294.468 399.074 276.15C392.516 279.35 387.432 303.15 385.71 314.65C378.564 297.058 361.673 258.828 351.277 246.65C360.095 274.772 393.313 378.726 394.927 344.816C395.09 341.391 395.128 338.48 395.165 335.612Z;M296.468 396.039C295.619 388.73 294.804 381.707 295.09 366.831C295.168 362.781 305.012 377.257 314.845 391.717C324.871 406.461 334.887 421.19 334.531 416.252C333.736 405.226 305.967 353.324 292.718 336.566C286.624 340.581 284.635 364.836 284.402 376.462C275.058 359.931 253.404 324.184 241.532 313.44C253.885 340.199 300.16 439.033 297.412 405.197C297.134 401.779 296.798 398.887 296.468 396.039Z;M395.165 335.612C395.261 328.255 395.353 321.185 397.545 306.469C398.142 302.462 406.048 318.081 413.945 333.684C421.998 349.592 430.041 365.483 430.322 360.54C430.947 349.503 410.065 294.468 399.074 276.15C392.516 279.35 387.432 303.15 385.71 314.65C378.564 297.058 361.673 258.828 351.277 246.65C360.095 274.772 393.313 378.726 394.927 344.816C395.09 341.391 395.128 338.48 395.165 335.612Z" begin="0s" dur="4s" repeatCount="indefinite" fill="freeze" calcMode="linear" keyTimes="0;0.5;1"/></path>
<path d="M393.663 270.23C387.253 271.734 385.238 293.569 385.71 302.862C386.181 312.155 378.578 283.243 366.45 261.873C359.59 249.783 344.659 225.425 349.682 241.544L349.759 241.791C350.12 242.952 350.634 244.599 351.277 246.65C361.673 258.828 378.564 297.058 385.71 314.65C387.432 303.15 392.516 279.35 399.074 276.15C396.707 272.205 394.799 269.963 393.663 270.23Z" fill="#E0E19E">
                                    <animate attributeName="d" values="M393.663 270.23C387.253 271.734 385.238 293.569 385.71 302.862C386.181 312.155 378.578 283.243 366.45 261.873C359.59 249.783 344.659 225.425 349.682 241.544L349.759 241.791C350.12 242.952 350.634 244.599 351.277 246.65C361.673 258.828 378.564 297.058 385.71 314.65C387.432 303.15 392.516 279.35 399.074 276.15C396.707 272.205 394.799 269.963 393.663 270.23Z;M286.592 331.389C280.428 333.703 281.23 355.616 282.89 364.772C284.55 373.928 273.301 346.23 258.533 326.591C250.179 315.481 232.247 293.238 239.295 308.581L239.403 308.815C239.911 309.921 240.631 311.488 241.532 313.44C253.404 324.184 275.058 359.931 284.402 376.462C284.635 364.836 286.624 340.581 292.718 336.566C289.865 332.957 287.685 330.979 286.592 331.389Z;M393.663 270.23C387.253 271.734 385.238 293.569 385.71 302.862C386.181 312.155 378.578 283.243 366.45 261.873C359.59 249.783 344.659 225.425 349.682 241.544L349.759 241.791C350.12 242.952 350.634 244.599 351.277 246.65C361.673 258.828 378.564 297.058 385.71 314.65C387.432 303.15 392.516 279.35 399.074 276.15C396.707 272.205 394.799 269.963 393.663 270.23Z" begin="0s" dur="4s" repeatCount="indefinite" fill="freeze" calcMode="linear" keyTimes="0;0.5;1"/></path>
</g>
<g id="Vector 8">
<path fill-rule="evenodd" clip-rule="evenodd" d="M431.367 774.204C442.937 764.82 454.056 755.804 479.792 740.147C486.799 735.883 472.742 768.42 458.7 800.924C444.383 834.063 430.081 867.168 438.134 861.199C456.116 847.873 514.685 744.075 528.945 703.241C515.469 697.183 471.853 720.111 451.729 732.332C469.841 698.42 507.435 622.607 512.913 590.654C480.585 640.812 361.889 827.182 416.739 785.757C422.278 781.574 426.857 777.861 431.367 774.204Z" fill="#FCFF6A">
                                    <animate attributeName="d" values="M431.367 774.204C442.937 764.82 454.056 755.804 479.792 740.147C486.799 735.883 472.742 768.42 458.7 800.924C444.383 834.063 430.081 867.168 438.134 861.199C456.116 847.873 514.685 744.075 528.945 703.241C515.469 697.183 471.853 720.111 451.729 732.332C469.841 698.42 507.435 622.607 512.913 590.654C480.585 640.812 361.889 827.182 416.739 785.757C422.278 781.574 426.857 777.861 431.367 774.204Z;M507.834 861.025C512.887 847.011 517.743 833.544 531.677 806.837C535.471 799.565 540.261 834.683 545.046 869.766C549.924 905.534 554.797 941.265 558.605 931.993C567.107 911.289 563.576 792.16 554.671 749.834C540.004 751.616 514.523 793.791 503.616 814.656C501.587 776.264 494.57 691.934 482.739 661.75C480.999 721.398 475.753 942.294 501.287 878.478C503.865 872.033 505.865 866.488 507.834 861.025Z;M431.367 774.204C442.937 764.82 454.056 755.804 479.792 740.147C486.799 735.883 472.742 768.42 458.7 800.924C444.383 834.063 430.081 867.168 438.134 861.199C456.116 847.873 514.685 744.075 528.945 703.241C515.469 697.183 471.853 720.111 451.729 732.332C469.841 698.42 507.435 622.607 512.913 590.654C480.585 640.812 361.889 827.182 416.739 785.757C422.278 781.574 426.857 777.861 431.367 774.204Z" begin="0s" dur="4s" repeatCount="indefinite" fill="freeze" calcMode="linear" keyTimes="0;0.5;1"/></path>
<path d="M531.145 687.152C520.498 679.128 483.916 704.284 470.069 717.058C456.222 729.833 491.352 680.543 508.889 633.986C518.809 607.648 537.361 552.857 518.79 581.557L518.506 581.996C517.168 584.064 515.27 586.997 512.913 590.654C507.435 622.607 469.841 698.42 451.729 732.332C471.853 720.111 515.469 697.183 528.945 703.241C532.015 694.447 533.031 688.574 531.145 687.152Z" fill="#E0E19E">
                                    <animate attributeName="d" values="M531.145 687.152C520.498 679.128 483.916 704.284 470.069 717.058C456.222 729.833 491.352 680.543 508.889 633.986C518.809 607.648 537.361 552.857 518.79 581.557L518.506 581.996C517.168 584.064 515.27 586.997 512.913 590.654C507.435 622.607 469.841 698.42 451.729 732.332C471.853 720.111 515.469 697.183 528.945 703.241C532.015 694.447 533.031 688.574 531.145 687.152Z;M548.236 734.924C534.974 733.56 516.666 774.006 511.418 792.101C506.17 810.195 510.757 749.841 501.697 700.922C496.572 673.249 484.125 616.757 483.067 650.925L483.051 651.447C482.974 653.909 482.866 657.401 482.739 661.75C494.57 691.934 501.587 776.264 503.616 814.656C514.523 793.791 540.004 751.616 554.671 749.834C552.753 740.719 550.586 735.166 548.236 734.924Z;M531.145 687.152C520.498 679.128 483.916 704.284 470.069 717.058C456.222 729.833 491.352 680.543 508.889 633.986C518.809 607.648 537.361 552.857 518.79 581.557L518.506 581.996C517.168 584.064 515.27 586.997 512.913 590.654C507.435 622.607 469.841 698.42 451.729 732.332C471.853 720.111 515.469 697.183 528.945 703.241C532.015 694.447 533.031 688.574 531.145 687.152Z" begin="0s" dur="4s" repeatCount="indefinite" fill="freeze" calcMode="linear" keyTimes="0;0.5;1"/></path>
</g>
<g id="Vector 3">
<path fill-rule="evenodd" clip-rule="evenodd" d="M663.858 384.827C671.072 374.221 710.137 316.79 728.399 298.112C731.497 299.145 727.605 329.568 725.272 344.65C737.829 334.458 764.199 310.882 769.218 298.112C773.456 294.149 776.059 292.328 775.492 294.66C772.316 307.714 719.834 373.699 714.139 370.394C708.444 367.089 712.87 345.613 716.026 336.859C717.509 332.744 714.829 336.187 709.719 342.749C703.96 350.146 695.116 361.506 685.672 370.47C675.591 380.04 654.217 399 663.714 385.039L663.858 384.827Z" fill="#FCFF6A">
                                    <animate attributeName="d" values="M663.858 384.827C671.072 374.221 710.137 316.79 728.399 298.112C731.497 299.145 727.605 329.568 725.272 344.65C737.829 334.458 764.199 310.882 769.218 298.112C773.456 294.149 776.059 292.328 775.492 294.66C772.316 307.714 719.834 373.699 714.139 370.394C708.444 367.089 712.87 345.613 716.026 336.859C717.509 332.744 714.829 336.187 709.719 342.749C703.96 350.146 695.116 361.506 685.672 370.47C675.591 380.04 654.217 399 663.714 385.039L663.858 384.827Z;M587.869 373.621C589.281 360.872 596.924 291.835 604.32 266.783C607.542 266.246 618.341 294.952 623.338 309.373C629.665 294.489 641.934 261.312 640.393 247.678C642.283 242.193 643.731 239.365 644.321 241.692C647.624 254.714 632.128 337.589 625.548 337.334C618.969 337.078 612.829 316.028 611.521 306.815C610.906 302.485 610.148 306.782 608.704 314.972C607.077 324.204 604.578 338.382 600.428 350.724C595.997 363.9 585.983 390.658 587.841 373.876L587.869 373.621Z;M663.858 384.827C671.072 374.221 710.137 316.79 728.399 298.112C731.497 299.145 727.605 329.568 725.272 344.65C737.829 334.458 764.199 310.882 769.218 298.112C773.456 294.149 776.059 292.328 775.492 294.66C772.316 307.714 719.834 373.699 714.139 370.394C708.444 367.089 712.87 345.613 716.026 336.859C717.509 332.744 714.829 336.187 709.719 342.749C703.96 350.146 695.116 361.506 685.672 370.47C675.591 380.04 654.217 399 663.714 385.039L663.858 384.827Z" begin="0s" dur="4s" repeatCount="indefinite" fill="freeze" calcMode="linear" keyTimes="0;0.5;1"/></path>
<path d="M737.053 299.404C734.056 311.255 731.436 316.399 728.399 336.852C727.491 342.965 756.14 310.341 769.218 298.112C764.199 310.882 737.829 334.458 725.272 344.65C727.605 329.568 731.497 299.145 728.399 298.112C735.615 290.732 739.582 289.402 737.053 299.404Z" fill="#E0E19E">
                                    <animate attributeName="d" values="M737.053 299.404C734.056 311.255 731.436 316.399 728.399 336.852C727.491 342.965 756.14 310.341 769.218 298.112C764.199 310.882 737.829 334.458 725.272 344.65C727.605 329.568 731.497 299.145 728.399 298.112C735.615 290.732 739.582 289.402 737.053 299.404Z;M612.573 263.874C615.471 275.75 615.563 281.522 622.452 301.018C624.51 306.845 634.559 264.607 640.393 247.678C641.934 261.312 629.665 294.489 623.338 309.373C618.341 294.952 607.542 266.246 604.32 266.783C607.243 256.884 610.127 253.852 612.573 263.874Z;M737.053 299.404C734.056 311.255 731.436 316.399 728.399 336.852C727.491 342.965 756.14 310.341 769.218 298.112C764.199 310.882 737.829 334.458 725.272 344.65C727.605 329.568 731.497 299.145 728.399 298.112C735.615 290.732 739.582 289.402 737.053 299.404Z" begin="0s" dur="4s" repeatCount="indefinite" fill="freeze" calcMode="linear" keyTimes="0;0.5;1"/></path>
</g>
<path id="Vector 4" d="M469.272 389.65C441.772 376.65 447.772 329.15 472.272 346.15C496.772 363.15 551.272 372.65 586.272 361.65C621.272 350.65 625.772 396.65 592.272 404.65C558.772 412.65 496.772 402.65 469.272 389.65Z" fill="#D6DCFA">
                                    <animate attributeName="d" values="M469.272 389.65C441.772 376.65 447.772 329.15 472.272 346.15C496.772 363.15 551.272 372.65 586.272 361.65C621.272 350.65 625.772 396.65 592.272 404.65C558.772 412.65 496.772 402.65 469.272 389.65Z;M389.948 417.091C359.892 412.413 347.408 380.546 383.463 374.992C419.519 369.438 457.114 363.647 497.184 357.563C537.255 351.48 542.021 379.471 512.159 396.633C482.297 413.795 420.004 421.768 389.948 417.091Z;M469.272 389.65C441.772 376.65 447.772 329.15 472.272 346.15C496.772 363.15 551.272 372.65 586.272 361.65C621.272 350.65 625.772 396.65 592.272 404.65C558.772 412.65 496.772 402.65 469.272 389.65Z" begin="0s" dur="4s" repeatCount="indefinite" fill="freeze" calcMode="linear" keyTimes="0;0.5;1"/></path>
<g id="Vector 5">
<path fill-rule="evenodd" clip-rule="evenodd" d="M200.752 361.193C153.733 362.032 45.7522 429.193 94.2522 526.193C142.752 623.193 328.752 764.692 367.252 737.192C400.232 691.235 395.772 609.15 360.849 494.15C341.841 452.771 323.613 418.04 314.252 405.193C281.207 359.837 247.772 360.353 200.752 361.193Z" fill="#C9C9C9">
                                    <animate attributeName="d" values="M200.752 361.193C153.733 362.032 45.7522 429.193 94.2522 526.193C142.752 623.193 328.752 764.692 367.252 737.192C400.232 691.235 395.772 609.15 360.849 494.15C341.841 452.771 323.613 418.04 314.252 405.193C281.207 359.837 247.772 360.353 200.752 361.193Z;M231.892 474.915C190.611 452.39 63.5452 457.358 57.725 565.651C51.9048 673.944 143.583 888.917 190.645 884.056C242.039 860.424 278.759 786.875 305.282 669.652C309.226 624.287 310.56 585.086 308.778 569.29C302.488 513.527 273.174 497.439 231.892 474.915Z;M200.752 361.193C153.733 362.032 45.7522 429.193 94.2522 526.193C142.752 623.193 328.752 764.692 367.252 737.192C400.232 691.235 395.772 609.15 360.849 494.15C341.841 452.771 323.613 418.04 314.252 405.193C281.207 359.837 247.772 360.353 200.752 361.193Z" begin="0s" dur="4s" repeatCount="indefinite" fill="freeze" calcMode="linear" keyTimes="0;0.5;1"/></path>
<path d="M367.252 737.192C405.752 709.692 389.752 722.192 419.752 700.192C439.73 685.542 398.74 576.636 360.849 494.15C395.772 609.15 400.232 691.235 367.252 737.192Z" fill="#DADADA">
                                    <animate attributeName="d" values="M367.252 737.192C405.752 709.692 389.752 722.192 419.752 700.192C439.73 685.542 398.74 576.636 360.849 494.15C395.772 609.15 400.232 691.235 367.252 737.192Z;M190.645 884.056C237.708 879.196 217.619 882.147 254.574 877.863C279.183 875.01 297.419 760.084 305.282 669.652C278.759 786.875 242.039 860.424 190.645 884.056Z;M367.252 737.192C405.752 709.692 389.752 722.192 419.752 700.192C439.73 685.542 398.74 576.636 360.849 494.15C395.772 609.15 400.232 691.235 367.252 737.192Z" begin="0s" dur="4s" repeatCount="indefinite" fill="freeze" calcMode="linear" keyTimes="0;0.5;1"/></path>
</g>
<g id="Vector 6">
<path fill-rule="evenodd" clip-rule="evenodd" d="M740.736 470.211C758.82 445.391 777.02 434.307 797.5 429.497C885.5 448 948.471 544.055 854.236 715.777C786.631 774.606 710.774 818.667 687.736 802.211C669.042 788.859 663.197 784.936 658.697 781.916C653.929 778.716 650.67 776.529 635.236 765.211C605.236 743.211 712.716 508.668 740.736 470.211Z" fill="#C9C9C9">
                                    <animate attributeName="d" values="M740.736 470.211C758.82 445.391 777.02 434.307 797.5 429.497C885.5 448 948.471 544.055 854.236 715.777C786.631 774.606 710.774 818.667 687.736 802.211C669.042 788.859 663.197 784.936 658.697 781.916C653.929 778.716 650.67 776.529 635.236 765.211C605.236 743.211 712.716 508.668 740.736 470.211Z;M650.488 476.303C652.894 445.687 662.594 426.713 677.521 411.889C762.177 381.562 866.128 430.408 875.79 626.05C849.01 711.572 807.466 788.836 779.221 786.884C756.304 785.3 749.27 785.02 743.855 784.804C738.117 784.575 734.195 784.419 715.119 782.861C678.041 779.832 646.761 523.739 650.488 476.303Z;M740.736 470.211C758.82 445.391 777.02 434.307 797.5 429.497C885.5 448 948.471 544.055 854.236 715.777C786.631 774.606 710.774 818.667 687.736 802.211C669.042 788.859 663.197 784.936 658.697 781.916C653.929 778.716 650.67 776.529 635.236 765.211C605.236 743.211 712.716 508.668 740.736 470.211Z" begin="0s" dur="4s" repeatCount="indefinite" fill="freeze" calcMode="linear" keyTimes="0;0.5;1"/></path>
<path d="M854.236 426.211C901.255 427.051 1009.24 494.211 960.736 591.211C941.258 630.166 899.605 676.297 854.236 715.777C948.471 544.055 885.5 448 797.5 429.497C814.444 425.517 832.947 425.831 854.236 426.211Z" fill="#DADADA">
                                    <animate attributeName="d" values="M854.236 426.211C901.255 427.051 1009.24 494.211 960.736 591.211C941.258 630.166 899.605 676.297 854.236 715.777C948.471 544.055 885.5 448 797.5 429.497C814.444 425.517 832.947 425.831 854.236 426.211Z;M724.131 379.375C764.626 355.464 891.787 356.123 901.274 464.156C905.084 507.542 893.762 568.656 875.79 626.05C866.128 430.408 762.177 381.562 677.521 411.889C689.87 399.625 705.797 390.201 724.131 379.375Z;M854.236 426.211C901.255 427.051 1009.24 494.211 960.736 591.211C941.258 630.166 899.605 676.297 854.236 715.777C948.471 544.055 885.5 448 797.5 429.497C814.444 425.517 832.947 425.831 854.236 426.211Z" begin="0s" dur="4s" repeatCount="indefinite" fill="freeze" calcMode="linear" keyTimes="0;0.5;1"/></path>
</g>
</g>

                                    </g>
</svg>